<svg xmlns="http://www.w3.org/2000/svg" width="1000" height="1000" viewBox="0 0 1000 1000">
  <defs>
    <style>
      .cls-1 {
        fill: #ac162c;
      }

      .cls-1, .cls-2 {
        fill-rule: evenodd;
      }

      .cls-2 {
        fill: #fff;
      }
    </style>
  </defs>
  <path id="herentals_1" data-name="herentals 1" class="cls-1" d="M144.758,128L33.1,358.384c-29.836,57.443-37.753,124.13-18.942,186.5,19.71,65.355,68.9,116.143,125.617,148.6,17.211,9.85,44.854,21,73.775,29.92a499.974,499.974,0,0,0,90.723,18.949c53.048,6.15,104.917,12.715,157.519,19.947,36.121,4.966,109.118,16.4,164.5,24.933,31.512,4.857,76.617,13.6,116.644,21.942,20.8,4.334,40.025,9.091,59.817,14.96,13.968,4.141,38.008,13.1,57.824,19.946,12.385,4.278,25.147,9.228,38.881,16.955A208.594,208.594,0,0,1,922.384,876q33.9-155.584,67.793-311.168c2.583-21.331,4.556-41.988,5.982-62.832,1.133-16.569,1.488-30.961-1-48.869a215.839,215.839,0,0,0-12.961-48.87c-9.142-23.432-19.978-41.441-30.9-54.853-11.376-13.963-28.426-29.494-51.842-43.883-16.236-9.977-37.323-19.364-62.808-26.928a305.524,305.524,0,0,0-39.879-8.976Z"/>
  <path id="Herentals_Smart_City_copy" data-name="Herentals          Smart City copy" class="cls-2" d="M121.3,394.135V495.209l0.488,1.954q2.2,6.1,10.254,6.1l0.488-.488V445.161h33.2v47.607q0,10.5,10.987,10.5l0.488-.488v-99.61q0-8.423-9.521-9.521h-1.465l-0.489.488v40.039H133.015l-0.489-.488v-31.25q0-7.507-9.277-8.789h-1.465Zm99.56,34.668q-15.87,6.533-15.869,25.635v23.926a25.542,25.542,0,0,0,1.709,9.765q5.736,15.138,25.635,15.137h27.832l0.488-.488v-2.2q0-6.651-7.568-8.3H233.552a38.264,38.264,0,0,1-8.057-.733q-9.278-3.722-9.277-12.207v-9.277h35.644a6.089,6.089,0,0,0,2.686-.488q6.1-2.38,6.1-7.08V452a24.92,24.92,0,0,0-4.882-14.893q-5.922-10.01-22.95-10.01a36.49,36.49,0,0,0-11.963,1.709h0ZM216.95,446.87q2.99-8.546,15.625-8.545h2.442a16.559,16.559,0,0,1,6.1.976q8.544,3.663,8.545,13.916v4.4a1.3,1.3,0,0,1-1.465,1.465H216.218V455.9a53.46,53.46,0,0,1,.732-9.033h0Zm70.386-19.288V493.5q0.732,9.767,9.033,9.766h1.953l0.488-.488V453.95q0-10.864,7.569-14.649,7.446-1.832,8.3-2.685a9.253,9.253,0,0,0,3.418-7.08v-1.709l-0.489-.489h-6.591a23.371,23.371,0,0,0-13.184,4.151h-0.488a9.313,9.313,0,0,0-8.3-4.395h-1.221Zm70.935,1.221q-15.87,6.533-15.869,25.635v23.926a25.523,25.523,0,0,0,1.709,9.765q5.736,15.138,25.635,15.137h27.832l0.488-.488v-2.2q0-6.651-7.568-8.3H370.966a38.254,38.254,0,0,1-8.056-.733q-9.279-3.722-9.278-12.207v-9.277h35.645a6.084,6.084,0,0,0,2.685-.488q6.1-2.38,6.1-7.08V452a24.915,24.915,0,0,0-4.883-14.893q-5.921-10.01-22.949-10.01a36.486,36.486,0,0,0-11.963,1.709h0Zm-3.906,18.067q2.99-8.546,15.625-8.545h2.441a16.561,16.561,0,0,1,6.1.976q8.544,3.663,8.545,13.916v4.4a1.3,1.3,0,0,1-1.465,1.465H353.632V455.9a53.355,53.355,0,0,1,.733-9.033h0Zm70.2-19.043v66.894a6.067,6.067,0,0,0,.489,2.686q2.256,5.859,9.033,5.859h1.221l0.488-.488V453.95l0.488-5.127q2.868-10.5,13.184-10.5h3.662q6.651,0,10.5,2.441,5.615,2.5,5.615,17.09v37.109q0,7.2,9.522,8.3h1.22l0.489-.488V455.9a45.726,45.726,0,0,0-1.465-12.7q-5.861-16.113-25.147-16.113-13.732,0-18.554,4.151h-0.489q-2.076-4.15-7.324-4.151-2.93.123-2.93,0.733h0Zm83.264-33.448v82.764a48.818,48.818,0,0,0,.977,8.545q6.409,17.578,24.658,17.578H542.5l0.489-.488v-1.465q0-6.225-6.348-8.789a28.492,28.492,0,0,1-10.254-1.709q-7.324-3.6-7.324-14.893v-37.6h21l0.488-.489v-1.953a6.1,6.1,0,0,0-.488-2.685q-2.442-5.861-8.545-5.86H519.062V402.924a9.3,9.3,0,0,0-.732-3.906q-2.38-5.127-8.3-5.127H508.32Zm72.156,34.18q-16.113,5.738-16.113,22.949v51.27l0.488,0.488h29.785a24.614,24.614,0,0,0,15.137-4.639,9.172,9.172,0,0,0,8.057,4.639h1.953l0.488-.488v-75.2l-0.488-.488H589.509a29.213,29.213,0,0,0-9.522,1.465h0Zm10.742,9.766h17.823v37.353a26.5,26.5,0,0,1-1.221,7.813q-2.747,8.789-17.578,8.789h-14.16l-0.489-.489V452.973q0-14.649,15.625-14.648h0Zm56.1-44.434-0.244.244-0.244,81.787a47.205,47.205,0,0,0,.976,8.545q5.614,18.8,23.926,18.8h10.742l0.488-.488v-1.465q0-6.225-5.859-8.789-7.752-.243-10.742-1.221-8.056-3.844-8.057-13.916v-73.73l-0.488-3.418q-2.076-6.348-8.789-6.348h-1.709Zm69.287,36.377Q704.4,438.02,704.4,447.6v1.709q0,6.531,6.592,13.916a32.04,32.04,0,0,0,13.184,6.348,62.5,62.5,0,0,1,16.113,1.709q7.568,4.394,7.568,9.277v1.465l-0.244,1.221q-3.357,9.033-16.113,9.033H712.7q-9.033,1.281-9.033,8.545v1.953l0.488,0.488H735.9a21.244,21.244,0,0,0,9.278-2.2q14.159-7.812,14.16-19.776,0-7.323-6.348-14.648-4.884-5.31-14.648-7.568-10.986,0-15.137-1.221-8.3-4.516-8.3-9.277l0.245-1.954q4.942-8.3,13.183-8.3H750.3l2.2-.245q7.08-1.464,7.08-9.765v-0.733l-0.488-.488H754.45l-23.926.244-2.685-.244q-4.944,0-11.719,3.174h0ZM380.539,535.961q-16.015,3.858-16.016,20.118v2.148a21.552,21.552,0,0,0,2.93,10.547q3.224,5.224,11.524,7.617,10.937,0.732,12.89,2.148,8.4,3.322,8.4,16.211v6.641a28.472,28.472,0,0,1-.782,5.859q-2.49,7.032-12.695,7.032H371.945l-1.953.195q-5.469,1.66-5.469,6.641v1.562l0.391,0.391h16.992l7.031,0.195q5.518,0,11.719-3.711,8.4-5.957,8.4-16.8V592.407q0-7.422-5.078-15.43-4.786-6.2-14.063-8.594a86.015,86.015,0,0,1-10.352-1.172q-6.054-2.2-6.054-10.351,0-12.3,11.719-12.305h15.82q8.2,0,8.2-8.008v-0.586l-0.391-.39H384.836a19.352,19.352,0,0,0-4.3.39h0ZM430.4,562.719v53.125a8.41,8.41,0,0,0,.782,3.32q1.8,4.1,7.226,4.1H439l0.391-.391V582.446a16.433,16.433,0,0,1,.976-4.883q2.685-6.249,10.547-6.25h3.711q11.523,0,11.523,12.7v31.836q0.976,7.423,7.032,7.422h1.562l0.391-.391V584.594a21.52,21.52,0,0,1,.976-7.031q2.442-6.249,10.547-6.25h3.711q11.719,0,11.719,14.648v29.688a10.819,10.819,0,0,0,.586,3.32q1.9,4.3,7.422,4.3h0.39l0.391-.391V586.547l0.195-3.906-0.976-5.664q-2.394-8.1-7.813-11.328-3.514-3.319-14.258-3.32-12.01,0-17.187,7.031-5.567-7.032-17.383-7.031h-2.734a19.843,19.843,0,0,0-11.914,3.515h-0.2q-1.661-3.516-7.226-3.515h-0.586Zm115.44,0.781q-12.891,4.591-12.891,18.36v41.015l0.391,0.391H557.17a19.694,19.694,0,0,0,12.109-3.711,7.339,7.339,0,0,0,6.446,3.711h1.562l0.391-.391V562.719l-0.391-.39H553.459a23.381,23.381,0,0,0-7.617,1.171h0Zm8.593,7.813h14.258V601.2a21.177,21.177,0,0,1-.976,6.25q-2.2,7.03-14.063,7.031H542.326l-0.391-.391V583.032q0-11.72,12.5-11.719h0Zm44.639-8.594v52.735q0.587,7.812,7.227,7.812h1.562l0.391-.391V583.813q0-8.691,6.055-11.719,5.957-1.464,6.64-2.148a7.4,7.4,0,0,0,2.735-5.664v-1.368l-0.391-.39h-5.274a18.7,18.7,0,0,0-10.546,3.32h-0.391a7.449,7.449,0,0,0-6.641-3.515h-0.976Zm43.906-26.562v66.211a39.056,39.056,0,0,0,.782,6.836q5.127,14.063,19.726,14.062h7.227l0.39-.391V621.7q0-4.981-5.078-7.032a22.792,22.792,0,0,1-8.2-1.367q-5.859-2.88-5.859-11.914V571.313h16.8l0.39-.391V569.36a4.883,4.883,0,0,0-.39-2.149,6.911,6.911,0,0,0-6.836-4.687h-9.961V542.993a7.446,7.446,0,0,0-.586-3.125,6.741,6.741,0,0,0-6.641-4.1h-1.367Zm81.807,1.9q-9.57,5.958-9.57,16.8v48.486a18.577,18.577,0,0,0,.976,6.641q5.03,13.281,19.141,13.281h24.072l0.391-.391v-2.734q-1.27-5.859-7.276-5.859h-16.6a14.243,14.243,0,0,1-5.664-.977q-6.055-2.637-6.055-9.961v-47.51q0-11.523,13.477-11.523H759.6l0.39-.391v-0.976a6.487,6.487,0,0,0-.39-2.539q-2-4.882-6.885-4.883h-16.6a23.853,23.853,0,0,0-11.328,2.539h0ZM781.1,536.84v6.641a8.432,8.432,0,0,0,.781,3.32q1.659,4.1,7.226,4.1h0.586l0.391-.391v-7.226a6.443,6.443,0,0,0-.586-2.735q-2.247-4.1-5.469-4.1h-2.539Zm0,25.879v53.125a7.521,7.521,0,0,0,.781,3.32q1.659,4.1,7.226,4.1h0.586l0.391-.391V569.75a6.466,6.466,0,0,0-.391-2.539q-1.66-4.881-6.445-4.882h-1.758Zm31.162-26.562v66.211a39.039,39.039,0,0,0,.781,6.836q5.127,14.063,19.727,14.062h7.226l0.391-.391V621.7q0-4.981-5.078-7.032a22.788,22.788,0,0,1-8.2-1.367q-5.86-2.88-5.86-11.914V571.313h16.8l0.391-.391V569.36a4.881,4.881,0,0,0-.391-2.149,6.909,6.909,0,0,0-6.836-4.687h-9.961V542.993a7.43,7.43,0,0,0-.586-3.125,6.739,6.739,0,0,0-6.64-4.1h-1.368Zm45.078,26.806v38.575a20.479,20.479,0,0,0,1.465,7.373q4.98,11.279,18.652,11.279h2.441a21.094,21.094,0,0,0,10.889-2.783h0.342v8.154q0,10.351-13.281,10.352H857.727l-0.391.341v1.319q0.976,6.639,6.3,6.64h17.92q7.323,0,13.476-5.908,4.59-4.59,4.59-14.4V569.946a10.507,10.507,0,0,0-.537-3.125,6.615,6.615,0,0,0-6.641-4.248h-0.927l-0.391.39v38.575a11.086,11.086,0,0,1-1.27,4.98q-3.124,5.371-12.939,5.371l-3.857-.537q-7.227-2.734-7.227-11.084v-29.2q0-8.5-7.959-8.5c-0.359,0-.537.13-0.537,0.39h0Z"/>
</svg>
